<svg xmlns="http://www.w3.org/2000/svg"  viewBox="0 0 50 50" width="50px" height="50px"><path d="M 32.5 2 C 24.098 2 17.289953 8.5737969 17.001953 16.966797 C 16.987953 17.346797 17.190391 17.700859 17.525391 17.880859 C 17.674391 17.960859 17.838 18 18 18 C 18.204 18 18.407078 17.937453 18.580078 17.814453 C 19.758078 16.975453 20.929875 16.447453 22.171875 16.189453 C 22.923875 12.082453 26.182641 8.8592969 30.306641 8.1542969 C 31.934641 5.6612969 34.511875 3.9400156 34.546875 3.9160156 C 34.900875 3.6850156 35.069703 3.25475 34.970703 2.84375 C 34.869703 2.43275 34.524516 2.1299375 34.103516 2.0859375 C 33.550516 2.0289375 33.025 2 32.5 2 z M 32 10 C 30.89 10 29.829141 10.230859 28.869141 10.630859 L 31.289062 13.050781 C 32.859062 12.830781 34.409062 13.340938 35.539062 14.460938 C 36.659062 15.590938 37.169688 17.140703 36.929688 18.720703 L 39.359375 21.140625 C 39.769375 20.170625 40 19.11 40 18 C 40 13.58 36.42 10 32 10 z M 27.099609 11.679688 C 26.539609 12.109687 26.050859 12.609922 25.630859 13.169922 L 28.439453 15.859375 C 28.919453 16.339375 29.140781 16.970078 29.050781 17.580078 C 28.910781 18.520078 29.210859 19.449141 29.880859 20.119141 C 30.550859 20.789141 31.469922 21.099219 32.419922 20.949219 C 33.019922 20.859219 33.659141 21.079062 34.119141 21.539062 L 36.910156 24.320312 C 37.440156 23.910312 37.910313 23.430391 38.320312 22.900391 L 35.539062 20.130859 C 35.079062 19.660859 34.859219 19.029922 34.949219 18.419922 C 35.089219 17.479922 34.789141 16.550859 34.119141 15.880859 C 33.449141 15.210859 32.520078 14.900781 31.580078 15.050781 C 30.980078 15.140781 30.340859 14.920938 29.880859 14.460938 L 27.099609 11.679688 z M 24.599609 14.949219 C 24.209609 15.889219 24 16.92 24 18 C 24 22.42 27.58 26 32 26 C 33.1 26 34.159141 25.779141 35.119141 25.369141 L 32.710938 22.949219 C 31.130938 23.159219 29.580938 22.659063 28.460938 21.539062 C 27.340938 20.409062 26.830313 18.859297 27.070312 17.279297 L 24.599609 14.949219 z M 46.847656 15.001953 C 46.542641 15.02375 46.257234 15.185672 46.083984 15.451172 C 46.059984 15.487172 44.343703 18.068266 41.845703 19.697266 C 41.139703 23.819266 37.917547 27.076125 33.810547 27.828125 C 33.552547 29.070125 33.024547 30.241922 32.185547 31.419922 C 31.964547 31.729922 31.939141 32.139609 32.119141 32.474609 C 32.294141 32.799609 32.633 33 33 33 C 33.012 33 33.021203 32.999047 33.033203 32.998047 C 41.426203 32.710047 48 25.902 48 17.5 C 48 16.966 47.972062 16.441484 47.914062 15.896484 C 47.871063 15.475484 47.56725 15.126344 47.15625 15.027344 C 47.05375 15.001594 46.949328 14.994687 46.847656 15.001953 z M 32 17 C 32.55 17 33 17.45 33 18 C 33 18.55 32.55 19 32 19 C 31.45 19 31 18.55 31 18 C 31 17.45 31.45 17 32 17 z M 23.595703 23.404297 L 22.707031 24.292969 L 22.699219 24.285156 A 1.0001 1.0001 0 0 0 21.982422 23.982422 A 1.0001 1.0001 0 0 0 21.285156 25.699219 L 24.292969 28.707031 A 1.0001 1.0001 0 1 0 25.707031 27.292969 L 26.595703 26.404297 C 25.393703 25.629297 24.370703 24.606297 23.595703 23.404297 z M 19.878906 27.121094 L 8.6210938 38.378906 L 11.621094 41.378906 L 22.878906 30.121094 L 19.878906 27.121094 z M 5.9902344 38.990234 A 1.0001 1.0001 0 0 0 5.2929688 40.707031 L 5.6894531 41.103516 C 5.1293397 41.2356 4.3983154 41.538652 3.6621094 42.275391 C 2.7491094 43.188391 2.1696719 46.147203 2.0136719 47.033203 C 1.9666719 47.297203 2.0521875 47.569766 2.2421875 47.759766 C 2.3981875 47.915766 2.6082187 48 2.8242188 48 C 2.8712188 48 2.9187969 47.996281 2.9667969 47.988281 C 3.8517969 47.832281 6.8116094 47.252844 7.7246094 46.339844 C 8.4359512 45.629061 8.732795 44.860009 8.8710938 44.285156 L 9.2929688 44.707031 A 1.0001 1.0001 0 1 0 10.707031 43.292969 L 6.7070312 39.292969 A 1.0001 1.0001 0 0 0 5.9902344 38.990234 z"/></svg>